# xmcd
#
# Track frame offsets: 
#        150
#        3418
#        22712
#        43528
#        65707
#        81820
#        100825
#        115704
#        138551
#        157494
#        172849
#
# Disc length: 2580 seconds
#
# Revision: 0
# Processed by: cddbd v1.5.2PL0 Copyright (c) Steve Scherf et al.
# Submitted via: ExactAudioCopyFreeDBPlugin 1.0
#
DISCID=850a120b
DTITLE=DNA - Nasa Prica
DYEAR=2012
DGENRE=Gothic Rock
TTITLE0=Intro
TTITLE1=Mozda Danas
TTITLE2=Na Putu Za Raj
TTITLE3=Sami
TTITLE4=Snjezna Kraljica
TTITLE5=Tisina
TTITLE6=Nasa Prica
TTITLE7=Na Jastuku
TTITLE8=Ona Voli Mjesecinu
TTITLE9=Iz Pocetka
TTITLE10=A Love In Vain
EXTD=
EXTT0=
EXTT1=
EXTT2=
EXTT3=
EXTT4=
EXTT5=
EXTT6=
EXTT7=
EXTT8=
EXTT9=
EXTT10=
PLAYORDER=
